<svg xmlns="http://www.w3.org/2000/svg" viewBox="0 0 532 172" width="532" height="172" data-frame0="e1010209fb90292f"><rect width="532" height="172" rx="6" fill="#0b0b0b"/><path d="M11 11h0M21 11h0M31 11h0M41 11h0M51 11h0M61 11h0M71 11h0M81 11h0M91 11h0M101 11h0M111 11h0M121 11h0M131 11h0M141 11h0M151 11h0M161 11h0M171 11h0M181 11h0M191 11h0M201 11h0M211 11h0M221 11h0M231 11h0M241 11h0M251 11h0M261 11h0M271 11h0M281 11h0M291 11h0M301 11h0M311 11h0M321 11h0M331 11h0M341 11h0M351 11h0M361 11h0M371 11h0M381 11h0M391 11h0M401 11h0M411 11h0M421 11h0M431 11h0M441 11h0M451 11h0M461 11h0M471 11h0M481 11h0M491 11h0M501 11h0M511 11h0M521 11h0M11 21h0M21 21h0M31 21h0M41 21h0M51 21h0M61 21h0M71 21h0M81 21h0M91 21h0M101 21h0M111 21h0M121 21h0M131 21h0M141 21h0M151 21h0M161 21h0M171 21h0M181 21h0M191 21h0M201 21h0M211 21h0M221 21h0M231 21h0M241 21h0M251 21h0M261 21h0M271 21h0M281 21h0M291 21h0M301 21h0M311 21h0M321 21h0M331 21h0M341 21h0M351 21h0M361 21h0M371 21h0M381 21h0M391 21h0M401 21h0M411 21h0M421 21h0M431 21h0M441 21h0M451 21h0M461 21h0M471 21h0M481 21h0M491 21h0M501 21h0M511 21h0M521 21h0M11 31h0M21 31h0M31 31h0M41 31h0M51 31h0M61 31h0M71 31h0M81 31h0M91 31h0M101 31h0M111 31h0M121 31h0M131 31h0M141 31h0M151 31h0M161 31h0M171 31h0M181 31h0M191 31h0M201 31h0M211 31h0M221 31h0M231 31h0M241 31h0M251 31h0M261 31h0M271 31h0M281 31h0M291 31h0M301 31h0M311 31h0M321 31h0M331 31h0M341 31h0M351 31h0M361 31h0M371 31h0M381 31h0M391 31h0M401 31h0M411 31h0M421 31h0M431 31h0M441 31h0M451 31h0M461 31h0M471 31h0M481 31h0M491 31h0M501 31h0M511 31h0M521 31h0M11 41h0M21 41h0M31 41h0M41 41h0M51 41h0M61 41h0M71 41h0M81 41h0M91 41h0M101 41h0M111 41h0M121 41h0M131 41h0M141 41h0M151 41h0M161 41h0M171 41h0M181 41h0M191 41h0M201 41h0M211 41h0M221 41h0M231 41h0M241 41h0M251 41h0M261 41h0M271 41h0M281 41h0M291 41h0M301 41h0M311 41h0M321 41h0M331 41h0M341 41h0M351 41h0M361 41h0M371 41h0M381 41h0M391 41h0M401 41h0M411 41h0M421 41h0M431 41h0M441 41h0M451 41h0M461 41h0M471 41h0M481 41h0M491 41h0M501 41h0M511 41h0M521 41h0M11 51h0M21 51h0M31 51h0M41 51h0M51 51h0M61 51h0M71 51h0M81 51h0M91 51h0M101 51h0M111 51h0M121 51h0M131 51h0M141 51h0M151 51h0M161 51h0M171 51h0M181 51h0M191 51h0M201 51h0M211 51h0M221 51h0M231 51h0M241 51h0M251 51h0M261 51h0M271 51h0M281 51h0M291 51h0M301 51h0M311 51h0M321 51h0M331 51h0M341 51h0M351 51h0M361 51h0M371 51h0M381 51h0M391 51h0M401 51h0M411 51h0M421 51h0M431 51h0M441 51h0M451 51h0M461 51h0M471 51h0M481 51h0M491 51h0M501 51h0M511 51h0M521 51h0M11 61h0M21 61h0M31 61h0M41 61h0M51 61h0M61 61h0M71 61h0M81 61h0M91 61h0M101 61h0M111 61h0M121 61h0M131 61h0M141 61h0M151 61h0M161 61h0M171 61h0M181 61h0M191 61h0M201 61h0M211 61h0M221 61h0M231 61h0M241 61h0M251 61h0M261 61h0M271 61h0M281 61h0M291 61h0M301 61h0M311 61h0M321 61h0M331 61h0M341 61h0M351 61h0M361 61h0M371 61h0M381 61h0M391 61h0M401 61h0M411 61h0M421 61h0M431 61h0M441 61h0M451 61h0M461 61h0M471 61h0M481 61h0M491 61h0M501 61h0M511 61h0M521 61h0M11 71h0M21 71h0M31 71h0M41 71h0M51 71h0M61 71h0M71 71h0M81 71h0M91 71h0M101 71h0M111 71h0M121 71h0M131 71h0M141 71h0M151 71h0M161 71h0M171 71h0M181 71h0M191 71h0M201 71h0M211 71h0M221 71h0M231 71h0M241 71h0M251 71h0M261 71h0M271 71h0M281 71h0M291 71h0M301 71h0M311 71h0M321 71h0M331 71h0M341 71h0M351 71h0M361 71h0M371 71h0M381 71h0M391 71h0M401 71h0M411 71h0M421 71h0M431 71h0M441 71h0M451 71h0M461 71h0M471 71h0M481 71h0M491 71h0M501 71h0M511 71h0M521 71h0M11 81h0M21 81h0M31 81h0M41 81h0M51 81h0M61 81h0M71 81h0M81 81h0M91 81h0M101 81h0M111 81h0M121 81h0M131 81h0M141 81h0M151 81h0M161 81h0M171 81h0M181 81h0M191 81h0M201 81h0M211 81h0M221 81h0M231 81h0M241 81h0M251 81h0M261 81h0M271 81h0M281 81h0M291 81h0M301 81h0M311 81h0M321 81h0M331 81h0M341 81h0M351 81h0M361 81h0M371 81h0M381 81h0M391 81h0M401 81h0M411 81h0M421 81h0M431 81h0M441 81h0M451 81h0M461 81h0M471 81h0M481 81h0M491 81h0M501 81h0M511 81h0M521 81h0M11 91h0M21 91h0M31 91h0M41 91h0M51 91h0M61 91h0M71 91h0M81 91h0M91 91h0M101 91h0M111 91h0M121 91h0M131 91h0M141 91h0M151 91h0M161 91h0M171 91h0M181 91h0M191 91h0M201 91h0M211 91h0M221 91h0M231 91h0M241 91h0M251 91h0M261 91h0M271 91h0M281 91h0M291 91h0M301 91h0M311 91h0M321 91h0M331 91h0M341 91h0M351 91h0M361 91h0M371 91h0M381 91h0M391 91h0M401 91h0M411 91h0M421 91h0M431 91h0M441 91h0M451 91h0M461 91h0M471 91h0M481 91h0M491 91h0M501 91h0M511 91h0M521 91h0M11 101h0M21 101h0M31 101h0M41 101h0M51 101h0M61 101h0M71 101h0M81 101h0M91 101h0M101 101h0M111 101h0M121 101h0M131 101h0M141 101h0M151 101h0M161 101h0M171 101h0M181 101h0M191 101h0M201 101h0M211 101h0M221 101h0M231 101h0M241 101h0M251 101h0M261 101h0M271 101h0M281 101h0M291 101h0M301 101h0M311 101h0M321 101h0M331 101h0M341 101h0M351 101h0M361 101h0M371 101h0M381 101h0M391 101h0M401 101h0M411 101h0M421 101h0M431 101h0M441 101h0M451 101h0M461 101h0M471 101h0M481 101h0M491 101h0M501 101h0M511 101h0M521 101h0M11 111h0M21 111h0M31 111h0M41 111h0M51 111h0M61 111h0M71 111h0M81 111h0M91 111h0M101 111h0M111 111h0M121 111h0M131 111h0M141 111h0M151 111h0M161 111h0M171 111h0M181 111h0M191 111h0M201 111h0M211 111h0M221 111h0M231 111h0M241 111h0M251 111h0M261 111h0M271 111h0M281 111h0M291 111h0M301 111h0M311 111h0M321 111h0M331 111h0M341 111h0M351 111h0M361 111h0M371 111h0M381 111h0M391 111h0M401 111h0M411 111h0M421 111h0M431 111h0M441 111h0M451 111h0M461 111h0M471 111h0M481 111h0M491 111h0M501 111h0M511 111h0M521 111h0M11 121h0M21 121h0M31 121h0M41 121h0M51 121h0M61 121h0M71 121h0M81 121h0M91 121h0M101 121h0M111 121h0M121 121h0M131 121h0M141 121h0M151 121h0M161 121h0M171 121h0M181 121h0M191 121h0M201 121h0M211 121h0M221 121h0M231 121h0M241 121h0M251 121h0M261 121h0M271 121h0M281 121h0M291 121h0M301 121h0M311 121h0M321 121h0M331 121h0M341 121h0M351 121h0M361 121h0M371 121h0M381 121h0M391 121h0M401 121h0M411 121h0M421 121h0M431 121h0M441 121h0M451 121h0M461 121h0M471 121h0M481 121h0M491 121h0M501 121h0M511 121h0M521 121h0M11 131h0M21 131h0M31 131h0M41 131h0M51 131h0M61 131h0M71 131h0M81 131h0M91 131h0M101 131h0M111 131h0M121 131h0M131 131h0M141 131h0M151 131h0M161 131h0M171 131h0M181 131h0M191 131h0M201 131h0M211 131h0M221 131h0M231 131h0M241 131h0M251 131h0M261 131h0M271 131h0M281 131h0M291 131h0M301 131h0M311 131h0M321 131h0M331 131h0M341 131h0M351 131h0M361 131h0M371 131h0M381 131h0M391 131h0M401 131h0M411 131h0M421 131h0M431 131h0M441 131h0M451 131h0M461 131h0M471 131h0M481 131h0M491 131h0M501 131h0M511 131h0M521 131h0M11 141h0M21 141h0M31 141h0M41 141h0M51 141h0M61 141h0M71 141h0M81 141h0M91 141h0M101 141h0M111 141h0M121 141h0M131 141h0M141 141h0M151 141h0M161 141h0M171 141h0M181 141h0M191 141h0M201 141h0M211 141h0M221 141h0M231 141h0M241 141h0M251 141h0M261 141h0M271 141h0M281 141h0M291 141h0M301 141h0M311 141h0M321 141h0M331 141h0M341 141h0M351 141h0M361 141h0M371 141h0M381 141h0M391 141h0M401 141h0M411 141h0M421 141h0M431 141h0M441 141h0M451 141h0M461 141h0M471 141h0M481 141h0M491 141h0M501 141h0M511 141h0M521 141h0M11 151h0M21 151h0M31 151h0M41 151h0M51 151h0M61 151h0M71 151h0M81 151h0M91 151h0M101 151h0M111 151h0M121 151h0M131 151h0M141 151h0M151 151h0M161 151h0M171 151h0M181 151h0M191 151h0M201 151h0M211 151h0M221 151h0M231 151h0M241 151h0M251 151h0M261 151h0M271 151h0M281 151h0M291 151h0M301 151h0M311 151h0M321 151h0M331 151h0M341 151h0M351 151h0M361 151h0M371 151h0M381 151h0M391 151h0M401 151h0M411 151h0M421 151h0M431 151h0M441 151h0M451 151h0M461 151h0M471 151h0M481 151h0M491 151h0M501 151h0M511 151h0M521 151h0M11 161h0M21 161h0M31 161h0M41 161h0M51 161h0M61 161h0M71 161h0M81 161h0M91 161h0M101 161h0M111 161h0M121 161h0M131 161h0M141 161h0M151 161h0M161 161h0M171 161h0M181 161h0M191 161h0M201 161h0M211 161h0M221 161h0M231 161h0M241 161h0M251 161h0M261 161h0M271 161h0M281 161h0M291 161h0M301 161h0M311 161h0M321 161h0M331 161h0M341 161h0M351 161h0M361 161h0M371 161h0M381 161h0M391 161h0M401 161h0M411 161h0M421 161h0M431 161h0M441 161h0M451 161h0M461 161h0M471 161h0M481 161h0M491 161h0M501 161h0M511 161h0M521 161h0" stroke="#1c1c1c" stroke-width="7.2" stroke-linecap="round" fill="none"/><path d="M151 31h0M161 31h0M171 31h0M181 31h0M191 31h0M201 31h0M151 41h0M161 41h0M171 41h0M181 41h0M191 41h0M201 41h0M131 51h0M141 51h0M211 51h0M221 51h0M131 61h0M141 61h0M211 61h0M221 61h0M111 71h0M121 71h0M231 71h0M241 71h0M111 81h0M121 81h0M231 81h0M241 81h0M111 91h0M121 91h0M231 91h0M241 91h0M111 101h0M121 101h0M231 101h0M241 101h0M111 111h0M121 111h0M231 111h0M241 111h0M111 121h0M121 121h0M231 121h0M241 121h0M131 131h0M141 131h0M211 131h0M221 131h0M131 141h0M141 141h0M211 141h0M221 141h0M151 151h0M161 151h0M171 151h0M181 151h0M191 151h0M201 151h0M151 161h0M161 161h0M171 161h0M181 161h0M191 161h0M201 161h0" stroke="#00FF00" stroke-width="7.2" stroke-linecap="round" fill="none"/><path d="M371 31h0M381 31h0M371 41h0M381 41h0M331 51h0M341 51h0M351 51h0M361 51h0M371 51h0M381 51h0M391 51h0M401 51h0M411 51h0M421 51h0M331 61h0M341 61h0M351 61h0M361 61h0M371 61h0M381 61h0M391 61h0M401 61h0M411 61h0M421 61h0M331 71h0M341 71h0M351 71h0M361 71h0M371 71h0M381 71h0M391 71h0M401 71h0M411 71h0M421 71h0M331 81h0M341 81h0M351 81h0M361 81h0M371 81h0M381 81h0M391 81h0M401 81h0M411 81h0M421 81h0M311 91h0M321 91h0M331 91h0M341 91h0M351 91h0M361 91h0M371 91h0M381 91h0M391 91h0M401 91h0M411 91h0M421 91h0M431 91h0M441 91h0M311 101h0M321 101h0M331 101h0M341 101h0M351 101h0M361 101h0M371 101h0M381 101h0M391 101h0M401 101h0M411 101h0M421 101h0M431 101h0M441 101h0M331 111h0M341 111h0M351 111h0M361 111h0M371 111h0M381 111h0M391 111h0M401 111h0M411 111h0M421 111h0M331 121h0M341 121h0M351 121h0M361 121h0M371 121h0M381 121h0M391 121h0M401 121h0M411 121h0M421 121h0M331 131h0M341 131h0M351 131h0M361 131h0M371 131h0M381 131h0M391 131h0M401 131h0M411 131h0M421 131h0M331 141h0M341 141h0M351 141h0M361 141h0M371 141h0M381 141h0M391 141h0M401 141h0M411 141h0M421 141h0M371 151h0M381 151h0M371 161h0M381 161h0" stroke="#FF0000" stroke-width="7.2" stroke-linecap="round" fill="none"/></svg>
