STARTFONT 2.1
FONT -AWTRIX-AwtrixLarge-Medium-R-Normal--8-80-75-75-P-40-ISO10646-1
SIZE 8 75 75
FONTBOUNDINGBOX 4 8 0 -2
COMMENT "Glyphs AWTRIX NG redraws for the large panel font."
STARTPROPERTIES 4
FAMILY_NAME "AwtrixLarge"
FONT_ASCENT 6
FONT_DESCENT 2
COPYRIGHT "AWTRIX NG supplement to https://github.com/trip5/Matrix-Fonts"
ENDPROPERTIES
CHARS 16
STARTCHAR uni1EA5
ENCODING 7845
SWIDTH 500 0
DWIDTH 4 0
BBX 3 7 0 -1
BITMAP
20
C0
00
E0
60
A0
E0
ENDCHAR
STARTCHAR uni1EA7
ENCODING 7847
SWIDTH 500 0
DWIDTH 4 0
BBX 3 7 0 -1
BITMAP
80
60
00
E0
60
A0
E0
ENDCHAR
STARTCHAR uni1EA9
ENCODING 7849
SWIDTH 500 0
DWIDTH 4 0
BBX 3 7 0 -1
BITMAP
20
E0
00
E0
60
A0
E0
ENDCHAR
STARTCHAR uni1EAB
ENCODING 7851
SWIDTH 500 0
DWIDTH 4 0
BBX 3 7 0 -1
BITMAP
E0
A0
00
E0
60
A0
E0
ENDCHAR
STARTCHAR uni1EAF
ENCODING 7855
SWIDTH 500 0
DWIDTH 4 0
BBX 3 7 0 -1
BITMAP
60
C0
00
E0
60
A0
E0
ENDCHAR
STARTCHAR uni1EB1
ENCODING 7857
SWIDTH 500 0
DWIDTH 4 0
BBX 3 7 0 -1
BITMAP
C0
60
00
E0
60
A0
E0
ENDCHAR
STARTCHAR uni1EB3
ENCODING 7859
SWIDTH 500 0
DWIDTH 4 0
BBX 3 7 0 -1
BITMAP
E0
40
00
E0
60
A0
E0
ENDCHAR
STARTCHAR uni1EB5
ENCODING 7861
SWIDTH 500 0
DWIDTH 4 0
BBX 3 7 0 -1
BITMAP
A0
E0
00
E0
60
A0
E0
ENDCHAR
STARTCHAR uni1EBE
ENCODING 7870
SWIDTH 500 0
DWIDTH 4 0
BBX 3 7 0 -1
BITMAP
20
C0
00
E0
80
C0
E0
ENDCHAR
STARTCHAR uni1EBF
ENCODING 7871
SWIDTH 500 0
DWIDTH 4 0
BBX 3 7 0 -1
BITMAP
20
C0
00
E0
A0
C0
E0
ENDCHAR
STARTCHAR uni1EC0
ENCODING 7872
SWIDTH 500 0
DWIDTH 4 0
BBX 3 7 0 -1
BITMAP
80
60
00
E0
80
C0
E0
ENDCHAR
STARTCHAR uni1EC1
ENCODING 7873
SWIDTH 500 0
DWIDTH 4 0
BBX 3 7 0 -1
BITMAP
80
60
00
E0
A0
C0
E0
ENDCHAR
STARTCHAR uni1EC2
ENCODING 7874
SWIDTH 500 0
DWIDTH 4 0
BBX 3 7 0 -1
BITMAP
40
E0
00
E0
80
C0
E0
ENDCHAR
STARTCHAR uni1EC3
ENCODING 7875
SWIDTH 500 0
DWIDTH 4 0
BBX 3 7 0 -1
BITMAP
40
E0
00
E0
A0
C0
E0
ENDCHAR
STARTCHAR uni1EC4
ENCODING 7876
SWIDTH 500 0
DWIDTH 4 0
BBX 3 7 0 -1
BITMAP
E0
A0
00
E0
80
C0
E0
ENDCHAR
STARTCHAR uni1EC5
ENCODING 7877
SWIDTH 500 0
DWIDTH 4 0
BBX 3 7 0 -1
BITMAP
E0
A0
00
E0
A0
C0
E0
ENDCHAR
ENDFONT
