STARTFONT 2.1
FONT -AWTRIX-MatrixChunky6X-Medium-R-Normal--6-60-75-75-P-40-ISO10646-1
SIZE 6 75 75
FONTBOUNDINGBOX 9 6 0 0
COMMENT "Glyphs AWTRIX NG adds to the original MatrixChunky6X."
STARTPROPERTIES 4
FAMILY_NAME "MatrixChunky6X"
FONT_ASCENT 6
FONT_DESCENT 0
COPYRIGHT "AWTRIX NG supplement to https://github.com/trip5/Matrix-Fonts"
ENDPROPERTIES
CHARS 292
STARTCHAR uni0102
ENCODING 258
SWIDTH 500 0
DWIDTH 4 0
BBX 3 6 0 0
BITMAP
A0
40
E0
A0
E0
A0
ENDCHAR
STARTCHAR uni0103
ENCODING 259
SWIDTH 500 0
DWIDTH 4 0
BBX 3 6 0 0
BITMAP
A0
40
E0
60
A0
E0
ENDCHAR
STARTCHAR uni01A0
ENCODING 416
SWIDTH 500 0
DWIDTH 5 0
BBX 4 5 0 0
BITMAP
10
F0
A0
A0
E0
ENDCHAR
STARTCHAR uni01A1
ENCODING 417
SWIDTH 500 0
DWIDTH 5 0
BBX 4 5 0 0
BITMAP
10
F0
A0
A0
E0
ENDCHAR
STARTCHAR uni01AF
ENCODING 431
SWIDTH 500 0
DWIDTH 5 0
BBX 4 5 0 0
BITMAP
10
B0
A0
A0
E0
ENDCHAR
STARTCHAR uni01B0
ENCODING 432
SWIDTH 500 0
DWIDTH 5 0
BBX 4 5 0 0
BITMAP
10
B0
A0
A0
E0
ENDCHAR
STARTCHAR uni0250
ENCODING 592
SWIDTH 500 0
DWIDTH 4 0
BBX 3 4 0 0
BITMAP
E0
A0
C0
E0
ENDCHAR
STARTCHAR uni0251
ENCODING 593
SWIDTH 500 0
DWIDTH 5 0
BBX 4 4 0 0
BITMAP
E0
A0
A0
F0
ENDCHAR
STARTCHAR uni0252
ENCODING 594
SWIDTH 500 0
DWIDTH 5 0
BBX 4 4 0 0
BITMAP
F0
50
50
70
ENDCHAR
STARTCHAR uni0253
ENCODING 595
SWIDTH 500 0
DWIDTH 4 0
BBX 3 6 0 0
BITMAP
60
80
80
E0
A0
E0
ENDCHAR
STARTCHAR uni0254
ENCODING 596
SWIDTH 500 0
DWIDTH 4 0
BBX 3 4 0 0
BITMAP
E0
20
20
E0
ENDCHAR
STARTCHAR uni0255
ENCODING 597
SWIDTH 500 0
DWIDTH 6 0
BBX 5 5 0 0
BITMAP
70
80
A8
70
20
ENDCHAR
STARTCHAR uni0256
ENCODING 598
SWIDTH 500 0
DWIDTH 5 0
BBX 4 6 0 0
BITMAP
20
20
E0
A0
E0
30
ENDCHAR
STARTCHAR uni0257
ENCODING 599
SWIDTH 500 0
DWIDTH 5 0
BBX 4 6 0 0
BITMAP
30
20
20
E0
A0
E0
ENDCHAR
STARTCHAR uni0258
ENCODING 600
SWIDTH 500 0
DWIDTH 4 0
BBX 3 4 0 0
BITMAP
E0
A0
60
E0
ENDCHAR
STARTCHAR uni0259
ENCODING 601
SWIDTH 500 0
DWIDTH 4 0
BBX 3 4 0 0
BITMAP
E0
60
A0
E0
ENDCHAR
STARTCHAR uni025A
ENCODING 602
SWIDTH 500 0
DWIDTH 5 0
BBX 4 4 0 0
BITMAP
E0
70
A0
E0
ENDCHAR
STARTCHAR uni025B
ENCODING 603
SWIDTH 500 0
DWIDTH 4 0
BBX 3 4 0 0
BITMAP
E0
C0
80
E0
ENDCHAR
STARTCHAR uni025C
ENCODING 604
SWIDTH 500 0
DWIDTH 4 0
BBX 3 4 0 0
BITMAP
E0
60
20
E0
ENDCHAR
STARTCHAR uni025D
ENCODING 605
SWIDTH 500 0
DWIDTH 5 0
BBX 4 4 0 0
BITMAP
E0
70
20
E0
ENDCHAR
STARTCHAR uni025E
ENCODING 606
SWIDTH 500 0
DWIDTH 5 0
BBX 4 4 0 0
BITMAP
60
B0
90
60
ENDCHAR
STARTCHAR uni025F
ENCODING 607
SWIDTH 500 0
DWIDTH 4 0
BBX 3 5 0 0
BITMAP
40
40
E0
40
C0
ENDCHAR
STARTCHAR uni0260
ENCODING 608
SWIDTH 500 0
DWIDTH 5 0
BBX 4 6 0 0
BITMAP
10
F0
A0
E0
20
60
ENDCHAR
STARTCHAR uni0261
ENCODING 609
SWIDTH 500 0
DWIDTH 4 0
BBX 3 5 0 0
BITMAP
E0
A0
E0
20
60
ENDCHAR
STARTCHAR uni0262
ENCODING 610
SWIDTH 500 0
DWIDTH 5 0
BBX 4 4 0 0
BITMAP
E0
80
90
F0
ENDCHAR
STARTCHAR uni0263
ENCODING 611
SWIDTH 500 0
DWIDTH 4 0
BBX 3 5 0 0
BITMAP
A0
A0
40
A0
40
ENDCHAR
STARTCHAR uni0264
ENCODING 612
SWIDTH 500 0
DWIDTH 4 0
BBX 3 4 0 0
BITMAP
A0
40
A0
40
ENDCHAR
STARTCHAR uni0265
ENCODING 613
SWIDTH 500 0
DWIDTH 4 0
BBX 3 5 0 0
BITMAP
A0
A0
E0
20
20
ENDCHAR
STARTCHAR uni0266
ENCODING 614
SWIDTH 500 0
DWIDTH 4 0
BBX 3 6 0 0
BITMAP
C0
80
E0
A0
A0
A0
ENDCHAR
STARTCHAR uni0267
ENCODING 615
SWIDTH 500 0
DWIDTH 4 0
BBX 3 6 0 0
BITMAP
C0
80
E0
A0
A0
20
ENDCHAR
STARTCHAR uni0268
ENCODING 616
SWIDTH 500 0
DWIDTH 4 0
BBX 3 6 0 0
BITMAP
40
00
00
40
E0
40
ENDCHAR
STARTCHAR uni0269
ENCODING 617
SWIDTH 500 0
DWIDTH 4 0
BBX 3 4 0 0
BITMAP
C0
40
40
60
ENDCHAR
STARTCHAR uni026A
ENCODING 618
SWIDTH 500 0
DWIDTH 4 0
BBX 3 4 0 0
BITMAP
E0
40
40
E0
ENDCHAR
STARTCHAR uni026B
ENCODING 619
SWIDTH 500 0
DWIDTH 6 0
BBX 5 6 0 0
BITMAP
20
68
B0
20
20
20
ENDCHAR
STARTCHAR uni026C
ENCODING 620
SWIDTH 500 0
DWIDTH 5 0
BBX 4 6 0 0
BITMAP
20
A0
70
20
20
20
ENDCHAR
STARTCHAR uni026D
ENCODING 621
SWIDTH 500 0
DWIDTH 3 0
BBX 2 6 0 0
BITMAP
80
80
80
80
80
C0
ENDCHAR
STARTCHAR uni026E
ENCODING 622
SWIDTH 500 0
DWIDTH 6 0
BBX 5 6 0 0
BITMAP
80
F8
90
B0
88
30
ENDCHAR
STARTCHAR uni026F
ENCODING 623
SWIDTH 500 0
DWIDTH 6 0
BBX 5 4 0 0
BITMAP
A8
A8
A8
F8
ENDCHAR
STARTCHAR uni0270
ENCODING 624
SWIDTH 500 0
DWIDTH 6 0
BBX 5 5 0 0
BITMAP
A8
A8
A8
F8
08
ENDCHAR
STARTCHAR uni0271
ENCODING 625
SWIDTH 500 0
DWIDTH 6 0
BBX 5 5 0 0
BITMAP
F8
A8
A8
A8
18
ENDCHAR
STARTCHAR uni0272
ENCODING 626
SWIDTH 500 0
DWIDTH 6 0
BBX 5 5 0 0
BITMAP
70
48
48
48
C0
ENDCHAR
STARTCHAR uni0273
ENCODING 627
SWIDTH 500 0
DWIDTH 5 0
BBX 4 5 0 0
BITMAP
E0
A0
A0
A0
30
ENDCHAR
STARTCHAR uni0274
ENCODING 628
SWIDTH 500 0
DWIDTH 5 0
BBX 4 4 0 0
BITMAP
90
D0
B0
90
ENDCHAR
STARTCHAR uni0275
ENCODING 629
SWIDTH 500 0
DWIDTH 4 0
BBX 3 4 0 0
BITMAP
E0
E0
A0
E0
ENDCHAR
STARTCHAR uni0276
ENCODING 630
SWIDTH 500 0
DWIDTH 6 0
BBX 5 4 0 0
BITMAP
F8
A0
B0
F8
ENDCHAR
STARTCHAR uni0277
ENCODING 631
SWIDTH 500 0
DWIDTH 6 0
BBX 5 4 0 0
BITMAP
70
88
A8
50
ENDCHAR
STARTCHAR uni0278
ENCODING 632
SWIDTH 500 0
DWIDTH 6 0
BBX 5 5 0 0
BITMAP
70
A8
A8
70
20
ENDCHAR
STARTCHAR uni0279
ENCODING 633
SWIDTH 500 0
DWIDTH 4 0
BBX 3 4 0 0
BITMAP
20
20
A0
E0
ENDCHAR
STARTCHAR uni027A
ENCODING 634
SWIDTH 500 0
DWIDTH 4 0
BBX 3 6 0 0
BITMAP
20
20
20
20
A0
E0
ENDCHAR
STARTCHAR uni027B
ENCODING 635
SWIDTH 500 0
DWIDTH 5 0
BBX 4 5 0 0
BITMAP
20
20
A0
E0
30
ENDCHAR
STARTCHAR uni027C
ENCODING 636
SWIDTH 500 0
DWIDTH 4 0
BBX 3 5 0 0
BITMAP
E0
A0
80
80
80
ENDCHAR
STARTCHAR uni027D
ENCODING 637
SWIDTH 500 0
DWIDTH 4 0
BBX 3 5 0 0
BITMAP
E0
A0
80
80
C0
ENDCHAR
STARTCHAR uni027E
ENCODING 638
SWIDTH 500 0
DWIDTH 4 0
BBX 3 4 0 0
BITMAP
60
80
80
80
ENDCHAR
STARTCHAR uni027F
ENCODING 639
SWIDTH 500 0
DWIDTH 4 0
BBX 3 4 0 0
BITMAP
C0
20
20
20
ENDCHAR
STARTCHAR uni0280
ENCODING 640
SWIDTH 500 0
DWIDTH 4 0
BBX 3 4 0 0
BITMAP
E0
A0
C0
A0
ENDCHAR
STARTCHAR uni0281
ENCODING 641
SWIDTH 500 0
DWIDTH 4 0
BBX 3 4 0 0
BITMAP
A0
C0
A0
E0
ENDCHAR
STARTCHAR uni0282
ENCODING 642
SWIDTH 500 0
DWIDTH 4 0
BBX 3 5 0 0
BITMAP
E0
80
60
E0
80
ENDCHAR
STARTCHAR uni0283
ENCODING 643
SWIDTH 500 0
DWIDTH 4 0
BBX 3 6 0 0
BITMAP
20
40
40
40
40
80
ENDCHAR
STARTCHAR uni0284
ENCODING 644
SWIDTH 500 0
DWIDTH 4 0
BBX 3 6 0 0
BITMAP
20
40
40
E0
40
80
ENDCHAR
STARTCHAR uni0285
ENCODING 645
SWIDTH 500 0
DWIDTH 4 0
BBX 3 6 0 0
BITMAP
80
40
40
40
40
20
ENDCHAR
STARTCHAR uni0286
ENCODING 646
SWIDTH 500 0
DWIDTH 5 0
BBX 4 6 0 0
BITMAP
10
20
20
70
A0
40
ENDCHAR
STARTCHAR uni0287
ENCODING 647
SWIDTH 500 0
DWIDTH 4 0
BBX 3 5 0 0
BITMAP
C0
40
40
E0
40
ENDCHAR
STARTCHAR uni0288
ENCODING 648
SWIDTH 500 0
DWIDTH 4 0
BBX 3 6 0 0
BITMAP
E0
40
40
40
40
20
ENDCHAR
STARTCHAR uni0289
ENCODING 649
SWIDTH 500 0
DWIDTH 6 0
BBX 5 4 0 0
BITMAP
50
F8
50
70
ENDCHAR
STARTCHAR uni028A
ENCODING 650
SWIDTH 500 0
DWIDTH 6 0
BBX 5 4 0 0
BITMAP
D8
50
88
70
ENDCHAR
STARTCHAR uni028B
ENCODING 651
SWIDTH 500 0
DWIDTH 5 0
BBX 4 4 0 0
BITMAP
B0
90
90
60
ENDCHAR
STARTCHAR uni028C
ENCODING 652
SWIDTH 500 0
DWIDTH 4 0
BBX 3 4 0 0
BITMAP
40
E0
A0
A0
ENDCHAR
STARTCHAR uni028D
ENCODING 653
SWIDTH 500 0
DWIDTH 6 0
BBX 5 4 0 0
BITMAP
50
F8
A8
A8
ENDCHAR
STARTCHAR uni028E
ENCODING 654
SWIDTH 500 0
DWIDTH 4 0
BBX 3 6 0 0
BITMAP
C0
80
E0
A0
A0
A0
ENDCHAR
STARTCHAR uni028F
ENCODING 655
SWIDTH 500 0
DWIDTH 4 0
BBX 3 4 0 0
BITMAP
A0
E0
40
40
ENDCHAR
STARTCHAR uni0290
ENCODING 656
SWIDTH 500 0
DWIDTH 4 0
BBX 3 5 0 0
BITMAP
E0
60
C0
E0
20
ENDCHAR
STARTCHAR uni0291
ENCODING 657
SWIDTH 500 0
DWIDTH 5 0
BBX 4 4 0 0
BITMAP
E0
60
D0
F0
ENDCHAR
STARTCHAR uni0292
ENCODING 658
SWIDTH 500 0
DWIDTH 5 0
BBX 4 5 0 0
BITMAP
F0
60
10
90
60
ENDCHAR
STARTCHAR uni0293
ENCODING 659
SWIDTH 500 0
DWIDTH 6 0
BBX 5 6 0 0
BITMAP
F0
10
60
78
90
60
ENDCHAR
STARTCHAR uni0294
ENCODING 660
SWIDTH 500 0
DWIDTH 4 0
BBX 3 6 0 0
BITMAP
E0
20
60
40
40
40
ENDCHAR
STARTCHAR uni0295
ENCODING 661
SWIDTH 500 0
DWIDTH 4 0
BBX 3 6 0 0
BITMAP
E0
80
C0
40
40
40
ENDCHAR
STARTCHAR uni0296
ENCODING 662
SWIDTH 500 0
DWIDTH 4 0
BBX 3 5 0 0
BITMAP
40
40
60
20
E0
ENDCHAR
STARTCHAR uni0297
ENCODING 663
SWIDTH 500 0
DWIDTH 5 0
BBX 4 6 0 0
BITMAP
60
80
80
80
90
60
ENDCHAR
STARTCHAR uni0298
ENCODING 664
SWIDTH 500 0
DWIDTH 6 0
BBX 5 6 0 0
BITMAP
70
88
88
A8
88
70
ENDCHAR
STARTCHAR uni0299
ENCODING 665
SWIDTH 500 0
DWIDTH 4 0
BBX 3 4 0 0
BITMAP
E0
C0
A0
E0
ENDCHAR
STARTCHAR uni029A
ENCODING 666
SWIDTH 500 0
DWIDTH 5 0
BBX 4 4 0 0
BITMAP
60
D0
90
60
ENDCHAR
STARTCHAR uni029B
ENCODING 667
SWIDTH 500 0
DWIDTH 5 0
BBX 4 6 0 0
BITMAP
30
60
80
80
90
70
ENDCHAR
STARTCHAR uni029C
ENCODING 668
SWIDTH 500 0
DWIDTH 5 0
BBX 4 4 0 0
BITMAP
90
F0
90
90
ENDCHAR
STARTCHAR uni029D
ENCODING 669
SWIDTH 500 0
DWIDTH 5 0
BBX 4 6 0 0
BITMAP
20
20
20
70
A0
40
ENDCHAR
STARTCHAR uni029E
ENCODING 670
SWIDTH 500 0
DWIDTH 4 0
BBX 3 5 0 0
BITMAP
A0
60
A0
A0
20
ENDCHAR
STARTCHAR uni029F
ENCODING 671
SWIDTH 500 0
DWIDTH 4 0
BBX 3 4 0 0
BITMAP
80
80
80
E0
ENDCHAR
STARTCHAR uni02A0
ENCODING 672
SWIDTH 500 0
DWIDTH 6 0
BBX 5 6 0 0
BITMAP
18
70
90
90
70
10
ENDCHAR
STARTCHAR uni02A1
ENCODING 673
SWIDTH 500 0
DWIDTH 5 0
BBX 4 6 0 0
BITMAP
60
10
20
20
E0
40
ENDCHAR
STARTCHAR uni02A2
ENCODING 674
SWIDTH 500 0
DWIDTH 5 0
BBX 4 6 0 0
BITMAP
60
80
40
40
70
20
ENDCHAR
STARTCHAR uni02A3
ENCODING 675
SWIDTH 500 0
DWIDTH 7 0
BBX 6 6 0 0
BITMAP
20
20
3C
EC
B8
FC
ENDCHAR
STARTCHAR uni02A4
ENCODING 676
SWIDTH 500 0
DWIDTH 8 0
BBX 7 6 0 0
BITMAP
20
3E
EC
A2
F2
0C
ENDCHAR
STARTCHAR uni02A5
ENCODING 677
SWIDTH 500 0
DWIDTH 8 0
BBX 7 6 0 0
BITMAP
20
20
3C
EC
BA
FE
ENDCHAR
STARTCHAR uni02A6
ENCODING 678
SWIDTH 500 0
DWIDTH 7 0
BBX 6 6 0 0
BITMAP
40
40
FC
50
4C
7C
ENDCHAR
STARTCHAR uni02A7
ENCODING 679
SWIDTH 500 0
DWIDTH 7 0
BBX 6 6 0 0
BITMAP
44
E8
48
48
68
10
ENDCHAR
STARTCHAR uni02A8
ENCODING 680
SWIDTH 500 0
DWIDTH 9 0
BBX 8 6 0 0
BITMAP
40
EE
50
55
6E
04
ENDCHAR
STARTCHAR uni02A9
ENCODING 681
SWIDTH 500 0
DWIDTH 7 0
BBX 6 6 0 0
BITMAP
60
5C
F4
54
54
04
ENDCHAR
STARTCHAR uni02AA
ENCODING 682
SWIDTH 500 0
DWIDTH 7 0
BBX 6 6 0 0
BITMAP
C0
5C
50
50
4C
FC
ENDCHAR
STARTCHAR uni02AB
ENCODING 683
SWIDTH 500 0
DWIDTH 7 0
BBX 6 6 0 0
BITMAP
C0
C0
5C
4C
58
FC
ENDCHAR
STARTCHAR uni02AC
ENCODING 684
SWIDTH 500 0
DWIDTH 6 0
BBX 5 6 0 0
BITMAP
A8
50
00
00
A8
50
ENDCHAR
STARTCHAR uni02AD
ENCODING 685
SWIDTH 500 0
DWIDTH 6 0
BBX 5 6 0 0
BITMAP
F8
88
F8
88
88
88
ENDCHAR
STARTCHAR uni02AE
ENCODING 686
SWIDTH 500 0
DWIDTH 6 0
BBX 5 6 0 0
BITMAP
C0
48
48
48
38
08
ENDCHAR
STARTCHAR uni02AF
ENCODING 687
SWIDTH 500 0
DWIDTH 7 0
BBX 6 6 0 0
BITMAP
C0
48
48
48
38
0C
ENDCHAR
STARTCHAR uni0386
ENCODING 902
SWIDTH 500 0
DWIDTH 6 0
BBX 5 6 0 0
BITMAP
B8
28
38
28
28
28
ENDCHAR
STARTCHAR uni0388
ENCODING 904
SWIDTH 500 0
DWIDTH 6 0
BBX 5 6 0 0
BITMAP
B8
20
20
38
20
38
ENDCHAR
STARTCHAR uni0389
ENCODING 905
SWIDTH 500 0
DWIDTH 7 0
BBX 6 6 0 0
BITMAP
A4
24
3C
24
24
24
ENDCHAR
STARTCHAR uni038A
ENCODING 906
SWIDTH 500 0
DWIDTH 6 0
BBX 5 6 0 0
BITMAP
B8
10
10
10
10
38
ENDCHAR
STARTCHAR uni038C
ENCODING 908
SWIDTH 500 0
DWIDTH 7 0
BBX 6 6 0 0
BITMAP
BC
24
24
24
24
3C
ENDCHAR
STARTCHAR uni038E
ENCODING 910
SWIDTH 500 0
DWIDTH 6 0
BBX 5 6 0 0
BITMAP
A8
28
38
10
10
10
ENDCHAR
STARTCHAR uni038F
ENCODING 911
SWIDTH 500 0
DWIDTH 8 0
BBX 7 6 0 0
BITMAP
9C
22
22
22
14
36
ENDCHAR
STARTCHAR uni0391
ENCODING 913
SWIDTH 500 0
DWIDTH 4 0
BBX 3 6 0 0
BITMAP
E0
A0
E0
A0
A0
A0
ENDCHAR
STARTCHAR uni0392
ENCODING 914
SWIDTH 500 0
DWIDTH 4 0
BBX 3 6 0 0
BITMAP
E0
A0
C0
A0
A0
E0
ENDCHAR
STARTCHAR uni0393
ENCODING 915
SWIDTH 500 0
DWIDTH 4 0
BBX 3 6 0 0
BITMAP
E0
80
80
80
80
80
ENDCHAR
STARTCHAR uni0394
ENCODING 916
SWIDTH 500 0
DWIDTH 6 0
BBX 5 6 0 0
BITMAP
20
50
50
50
88
F8
ENDCHAR
STARTCHAR uni0395
ENCODING 917
SWIDTH 500 0
DWIDTH 4 0
BBX 3 6 0 0
BITMAP
E0
80
E0
80
80
E0
ENDCHAR
STARTCHAR uni0396
ENCODING 918
SWIDTH 500 0
DWIDTH 4 0
BBX 3 6 0 0
BITMAP
E0
20
40
40
80
E0
ENDCHAR
STARTCHAR uni0397
ENCODING 919
SWIDTH 500 0
DWIDTH 5 0
BBX 4 6 0 0
BITMAP
90
90
F0
90
90
90
ENDCHAR
STARTCHAR uni0398
ENCODING 920
SWIDTH 500 0
DWIDTH 5 0
BBX 4 6 0 0
BITMAP
F0
90
90
F0
90
F0
ENDCHAR
STARTCHAR uni0399
ENCODING 921
SWIDTH 500 0
DWIDTH 4 0
BBX 3 6 0 0
BITMAP
E0
40
40
40
40
E0
ENDCHAR
STARTCHAR uni039A
ENCODING 922
SWIDTH 500 0
DWIDTH 4 0
BBX 3 6 0 0
BITMAP
A0
A0
C0
A0
A0
A0
ENDCHAR
STARTCHAR uni039B
ENCODING 923
SWIDTH 500 0
DWIDTH 6 0
BBX 5 6 0 0
BITMAP
20
50
50
50
88
88
ENDCHAR
STARTCHAR uni039C
ENCODING 924
SWIDTH 500 0
DWIDTH 6 0
BBX 5 6 0 0
BITMAP
88
D8
A8
88
88
88
ENDCHAR
STARTCHAR uni039D
ENCODING 925
SWIDTH 500 0
DWIDTH 5 0
BBX 4 6 0 0
BITMAP
90
D0
B0
90
90
90
ENDCHAR
STARTCHAR uni039E
ENCODING 926
SWIDTH 500 0
DWIDTH 4 0
BBX 3 6 0 0
BITMAP
E0
00
00
E0
00
E0
ENDCHAR
STARTCHAR uni039F
ENCODING 927
SWIDTH 500 0
DWIDTH 5 0
BBX 4 6 0 0
BITMAP
F0
90
90
90
90
F0
ENDCHAR
STARTCHAR uni03A0
ENCODING 928
SWIDTH 500 0
DWIDTH 5 0
BBX 4 6 0 0
BITMAP
F0
90
90
90
90
90
ENDCHAR
STARTCHAR uni03A1
ENCODING 929
SWIDTH 500 0
DWIDTH 4 0
BBX 3 6 0 0
BITMAP
E0
A0
E0
80
80
80
ENDCHAR
STARTCHAR uni03A3
ENCODING 931
SWIDTH 500 0
DWIDTH 4 0
BBX 3 6 0 0
BITMAP
E0
80
40
40
80
E0
ENDCHAR
STARTCHAR uni03A4
ENCODING 932
SWIDTH 500 0
DWIDTH 4 0
BBX 3 6 0 0
BITMAP
E0
40
40
40
40
40
ENDCHAR
STARTCHAR uni03A5
ENCODING 933
SWIDTH 500 0
DWIDTH 4 0
BBX 3 6 0 0
BITMAP
A0
A0
E0
40
40
40
ENDCHAR
STARTCHAR uni03A6
ENCODING 934
SWIDTH 500 0
DWIDTH 6 0
BBX 5 6 0 0
BITMAP
20
20
70
A8
70
20
ENDCHAR
STARTCHAR uni03A7
ENCODING 935
SWIDTH 500 0
DWIDTH 4 0
BBX 3 6 0 0
BITMAP
A0
A0
40
A0
A0
A0
ENDCHAR
STARTCHAR uni03A8
ENCODING 936
SWIDTH 500 0
DWIDTH 6 0
BBX 5 6 0 0
BITMAP
A8
A8
F8
20
20
20
ENDCHAR
STARTCHAR uni03A9
ENCODING 937
SWIDTH 500 0
DWIDTH 6 0
BBX 5 6 0 0
BITMAP
70
88
88
88
50
D8
ENDCHAR
STARTCHAR uni03AA
ENCODING 938
SWIDTH 500 0
DWIDTH 4 0
BBX 3 6 0 0
BITMAP
A0
00
E0
40
40
E0
ENDCHAR
STARTCHAR uni03AB
ENCODING 939
SWIDTH 500 0
DWIDTH 4 0
BBX 3 6 0 0
BITMAP
A0
00
A0
E0
40
40
ENDCHAR
STARTCHAR uni03AC
ENCODING 940
SWIDTH 500 0
DWIDTH 5 0
BBX 4 6 0 0
BITMAP
20
40
D0
A0
A0
D0
ENDCHAR
STARTCHAR uni03AD
ENCODING 941
SWIDTH 500 0
DWIDTH 4 0
BBX 3 6 0 0
BITMAP
20
40
E0
C0
80
E0
ENDCHAR
STARTCHAR uni03AE
ENCODING 942
SWIDTH 500 0
DWIDTH 4 0
BBX 3 6 0 0
BITMAP
20
40
E0
A0
A0
20
ENDCHAR
STARTCHAR uni03AF
ENCODING 943
SWIDTH 500 0
DWIDTH 4 0
BBX 3 6 0 0
BITMAP
20
40
C0
40
40
60
ENDCHAR
STARTCHAR uni03B1
ENCODING 945
SWIDTH 500 0
DWIDTH 5 0
BBX 4 4 0 0
BITMAP
D0
A0
A0
D0
ENDCHAR
STARTCHAR uni03B2
ENCODING 946
SWIDTH 500 0
DWIDTH 4 0
BBX 3 6 0 0
BITMAP
60
A0
C0
A0
E0
80
ENDCHAR
STARTCHAR uni03B3
ENCODING 947
SWIDTH 500 0
DWIDTH 4 0
BBX 3 5 0 0
BITMAP
A0
A0
40
A0
40
ENDCHAR
STARTCHAR uni03B4
ENCODING 948
SWIDTH 500 0
DWIDTH 4 0
BBX 3 6 0 0
BITMAP
60
80
80
E0
A0
E0
ENDCHAR
STARTCHAR uni03B5
ENCODING 949
SWIDTH 500 0
DWIDTH 4 0
BBX 3 4 0 0
BITMAP
E0
C0
80
E0
ENDCHAR
STARTCHAR uni03B6
ENCODING 950
SWIDTH 500 0
DWIDTH 4 0
BBX 3 6 0 0
BITMAP
E0
C0
80
80
E0
20
ENDCHAR
STARTCHAR uni03B7
ENCODING 951
SWIDTH 500 0
DWIDTH 4 0
BBX 3 5 0 0
BITMAP
E0
A0
A0
A0
20
ENDCHAR
STARTCHAR uni03B8
ENCODING 952
SWIDTH 500 0
DWIDTH 4 0
BBX 3 6 0 0
BITMAP
E0
A0
A0
E0
A0
E0
ENDCHAR
STARTCHAR uni03B9
ENCODING 953
SWIDTH 500 0
DWIDTH 4 0
BBX 3 4 0 0
BITMAP
C0
40
40
60
ENDCHAR
STARTCHAR uni03BA
ENCODING 954
SWIDTH 500 0
DWIDTH 4 0
BBX 3 4 0 0
BITMAP
A0
C0
A0
A0
ENDCHAR
STARTCHAR uni03BB
ENCODING 955
SWIDTH 500 0
DWIDTH 4 0
BBX 3 6 0 0
BITMAP
C0
40
40
40
A0
A0
ENDCHAR
STARTCHAR uni03BC
ENCODING 956
SWIDTH 500 0
DWIDTH 4 0
BBX 3 5 0 0
BITMAP
A0
A0
A0
E0
80
ENDCHAR
STARTCHAR uni03BD
ENCODING 957
SWIDTH 500 0
DWIDTH 4 0
BBX 3 4 0 0
BITMAP
A0
A0
E0
40
ENDCHAR
STARTCHAR uni03BE
ENCODING 958
SWIDTH 500 0
DWIDTH 4 0
BBX 3 6 0 0
BITMAP
E0
80
60
80
E0
20
ENDCHAR
STARTCHAR uni03BF
ENCODING 959
SWIDTH 500 0
DWIDTH 4 0
BBX 3 4 0 0
BITMAP
E0
A0
A0
E0
ENDCHAR
STARTCHAR uni03C0
ENCODING 960
SWIDTH 500 0
DWIDTH 5 0
BBX 4 4 0 0
BITMAP
F0
50
50
50
ENDCHAR
STARTCHAR uni03C1
ENCODING 961
SWIDTH 500 0
DWIDTH 4 0
BBX 3 5 0 0
BITMAP
E0
A0
E0
80
80
ENDCHAR
STARTCHAR uni03C2
ENCODING 962
SWIDTH 500 0
DWIDTH 4 0
BBX 3 5 0 0
BITMAP
E0
80
80
E0
20
ENDCHAR
STARTCHAR uni03C3
ENCODING 963
SWIDTH 500 0
DWIDTH 5 0
BBX 4 4 0 0
BITMAP
F0
A0
A0
E0
ENDCHAR
STARTCHAR uni03C4
ENCODING 964
SWIDTH 500 0
DWIDTH 4 0
BBX 3 4 0 0
BITMAP
E0
40
40
60
ENDCHAR
STARTCHAR uni03C5
ENCODING 965
SWIDTH 500 0
DWIDTH 4 0
BBX 3 4 0 0
BITMAP
A0
A0
A0
40
ENDCHAR
STARTCHAR uni03C6
ENCODING 966
SWIDTH 500 0
DWIDTH 6 0
BBX 5 5 0 0
BITMAP
70
A8
A8
70
20
ENDCHAR
STARTCHAR uni03C7
ENCODING 967
SWIDTH 500 0
DWIDTH 4 0
BBX 3 5 0 0
BITMAP
A0
A0
40
A0
A0
ENDCHAR
STARTCHAR uni03C8
ENCODING 968
SWIDTH 500 0
DWIDTH 6 0
BBX 5 5 0 0
BITMAP
A8
A8
F8
20
20
ENDCHAR
STARTCHAR uni03C9
ENCODING 969
SWIDTH 500 0
DWIDTH 6 0
BBX 5 4 0 0
BITMAP
88
A8
A8
50
ENDCHAR
STARTCHAR uni03CA
ENCODING 970
SWIDTH 500 0
DWIDTH 4 0
BBX 3 6 0 0
BITMAP
A0
00
C0
40
40
60
ENDCHAR
STARTCHAR uni03CB
ENCODING 971
SWIDTH 500 0
DWIDTH 4 0
BBX 3 6 0 0
BITMAP
A0
00
A0
A0
A0
40
ENDCHAR
STARTCHAR uni03CC
ENCODING 972
SWIDTH 500 0
DWIDTH 4 0
BBX 3 6 0 0
BITMAP
20
40
E0
A0
A0
E0
ENDCHAR
STARTCHAR uni03CD
ENCODING 973
SWIDTH 500 0
DWIDTH 4 0
BBX 3 6 0 0
BITMAP
20
40
A0
A0
A0
40
ENDCHAR
STARTCHAR uni03CE
ENCODING 974
SWIDTH 500 0
DWIDTH 6 0
BBX 5 6 0 0
BITMAP
10
20
88
A8
A8
50
ENDCHAR
STARTCHAR uni1EA0
ENCODING 7840
SWIDTH 500 0
DWIDTH 4 0
BBX 3 5 0 0
BITMAP
E0
A0
E0
A0
40
ENDCHAR
STARTCHAR uni1EA1
ENCODING 7841
SWIDTH 500 0
DWIDTH 4 0
BBX 3 6 0 0
BITMAP
E0
20
E0
A0
E0
40
ENDCHAR
STARTCHAR uni1EA2
ENCODING 7842
SWIDTH 500 0
DWIDTH 4 0
BBX 3 6 0 0
BITMAP
C0
40
E0
A0
E0
A0
ENDCHAR
STARTCHAR uni1EA3
ENCODING 7843
SWIDTH 500 0
DWIDTH 4 0
BBX 3 6 0 0
BITMAP
C0
40
E0
60
A0
E0
ENDCHAR
STARTCHAR uni1EA4
ENCODING 7844
SWIDTH 500 0
DWIDTH 4 0
BBX 3 6 0 0
BITMAP
20
C0
E0
A0
E0
A0
ENDCHAR
STARTCHAR uni1EA5
ENCODING 7845
SWIDTH 500 0
DWIDTH 4 0
BBX 3 6 0 0
BITMAP
20
C0
E0
60
A0
E0
ENDCHAR
STARTCHAR uni1EA6
ENCODING 7846
SWIDTH 500 0
DWIDTH 4 0
BBX 3 6 0 0
BITMAP
80
60
E0
A0
E0
A0
ENDCHAR
STARTCHAR uni1EA7
ENCODING 7847
SWIDTH 500 0
DWIDTH 4 0
BBX 3 6 0 0
BITMAP
80
60
E0
60
A0
E0
ENDCHAR
STARTCHAR uni1EA8
ENCODING 7848
SWIDTH 500 0
DWIDTH 4 0
BBX 3 6 0 0
BITMAP
20
E0
E0
A0
E0
A0
ENDCHAR
STARTCHAR uni1EA9
ENCODING 7849
SWIDTH 500 0
DWIDTH 4 0
BBX 3 6 0 0
BITMAP
20
E0
E0
60
A0
E0
ENDCHAR
STARTCHAR uni1EAA
ENCODING 7850
SWIDTH 500 0
DWIDTH 4 0
BBX 3 6 0 0
BITMAP
E0
A0
E0
A0
E0
A0
ENDCHAR
STARTCHAR uni1EAB
ENCODING 7851
SWIDTH 500 0
DWIDTH 4 0
BBX 3 6 0 0
BITMAP
E0
A0
E0
60
A0
E0
ENDCHAR
STARTCHAR uni1EAC
ENCODING 7852
SWIDTH 500 0
DWIDTH 4 0
BBX 3 6 0 0
BITMAP
40
E0
A0
E0
A0
40
ENDCHAR
STARTCHAR uni1EAD
ENCODING 7853
SWIDTH 500 0
DWIDTH 4 0
BBX 3 6 0 0
BITMAP
40
E0
60
A0
E0
40
ENDCHAR
STARTCHAR uni1EAE
ENCODING 7854
SWIDTH 500 0
DWIDTH 4 0
BBX 3 6 0 0
BITMAP
60
C0
E0
A0
E0
A0
ENDCHAR
STARTCHAR uni1EAF
ENCODING 7855
SWIDTH 500 0
DWIDTH 4 0
BBX 3 6 0 0
BITMAP
60
C0
E0
60
A0
E0
ENDCHAR
STARTCHAR uni1EB0
ENCODING 7856
SWIDTH 500 0
DWIDTH 4 0
BBX 3 6 0 0
BITMAP
C0
60
E0
A0
E0
A0
ENDCHAR
STARTCHAR uni1EB1
ENCODING 7857
SWIDTH 500 0
DWIDTH 4 0
BBX 3 6 0 0
BITMAP
C0
60
E0
60
A0
E0
ENDCHAR
STARTCHAR uni1EB2
ENCODING 7858
SWIDTH 500 0
DWIDTH 4 0
BBX 3 6 0 0
BITMAP
E0
40
E0
A0
E0
A0
ENDCHAR
STARTCHAR uni1EB3
ENCODING 7859
SWIDTH 500 0
DWIDTH 4 0
BBX 3 6 0 0
BITMAP
E0
40
E0
60
A0
E0
ENDCHAR
STARTCHAR uni1EB4
ENCODING 7860
SWIDTH 500 0
DWIDTH 4 0
BBX 3 6 0 0
BITMAP
A0
E0
E0
A0
E0
A0
ENDCHAR
STARTCHAR uni1EB5
ENCODING 7861
SWIDTH 500 0
DWIDTH 4 0
BBX 3 6 0 0
BITMAP
A0
E0
E0
60
A0
E0
ENDCHAR
STARTCHAR uni1EB6
ENCODING 7862
SWIDTH 500 0
DWIDTH 4 0
BBX 3 6 0 0
BITMAP
A0
E0
A0
E0
A0
40
ENDCHAR
STARTCHAR uni1EB7
ENCODING 7863
SWIDTH 500 0
DWIDTH 4 0
BBX 3 6 0 0
BITMAP
A0
E0
60
A0
E0
40
ENDCHAR
STARTCHAR uni1EB8
ENCODING 7864
SWIDTH 500 0
DWIDTH 4 0
BBX 3 6 0 0
BITMAP
E0
80
E0
80
E0
40
ENDCHAR
STARTCHAR uni1EB9
ENCODING 7865
SWIDTH 500 0
DWIDTH 4 0
BBX 3 6 0 0
BITMAP
E0
A0
E0
80
E0
40
ENDCHAR
STARTCHAR uni1EBA
ENCODING 7866
SWIDTH 500 0
DWIDTH 4 0
BBX 3 6 0 0
BITMAP
C0
40
E0
80
C0
E0
ENDCHAR
STARTCHAR uni1EBB
ENCODING 7867
SWIDTH 500 0
DWIDTH 4 0
BBX 3 6 0 0
BITMAP
C0
40
E0
A0
C0
E0
ENDCHAR
STARTCHAR uni1EBC
ENCODING 7868
SWIDTH 500 0
DWIDTH 4 0
BBX 3 6 0 0
BITMAP
E0
00
E0
80
C0
E0
ENDCHAR
STARTCHAR uni1EBD
ENCODING 7869
SWIDTH 500 0
DWIDTH 4 0
BBX 3 5 0 0
BITMAP
E0
E0
A0
C0
E0
ENDCHAR
STARTCHAR uni1EBE
ENCODING 7870
SWIDTH 500 0
DWIDTH 4 0
BBX 3 6 0 0
BITMAP
20
C0
E0
80
C0
E0
ENDCHAR
STARTCHAR uni1EBF
ENCODING 7871
SWIDTH 500 0
DWIDTH 4 0
BBX 3 6 0 0
BITMAP
20
C0
E0
A0
C0
E0
ENDCHAR
STARTCHAR uni1EC0
ENCODING 7872
SWIDTH 500 0
DWIDTH 4 0
BBX 3 6 0 0
BITMAP
80
60
E0
80
C0
E0
ENDCHAR
STARTCHAR uni1EC1
ENCODING 7873
SWIDTH 500 0
DWIDTH 4 0
BBX 3 6 0 0
BITMAP
80
60
E0
A0
C0
E0
ENDCHAR
STARTCHAR uni1EC2
ENCODING 7874
SWIDTH 500 0
DWIDTH 4 0
BBX 3 6 0 0
BITMAP
20
E0
E0
80
C0
E0
ENDCHAR
STARTCHAR uni1EC3
ENCODING 7875
SWIDTH 500 0
DWIDTH 4 0
BBX 3 6 0 0
BITMAP
20
E0
E0
A0
C0
E0
ENDCHAR
STARTCHAR uni1EC4
ENCODING 7876
SWIDTH 500 0
DWIDTH 4 0
BBX 3 6 0 0
BITMAP
E0
A0
E0
80
C0
E0
ENDCHAR
STARTCHAR uni1EC5
ENCODING 7877
SWIDTH 500 0
DWIDTH 4 0
BBX 3 6 0 0
BITMAP
E0
A0
E0
A0
C0
E0
ENDCHAR
STARTCHAR uni1EC6
ENCODING 7878
SWIDTH 500 0
DWIDTH 4 0
BBX 3 6 0 0
BITMAP
40
E0
80
C0
E0
40
ENDCHAR
STARTCHAR uni1EC7
ENCODING 7879
SWIDTH 500 0
DWIDTH 4 0
BBX 3 6 0 0
BITMAP
40
E0
A0
C0
E0
40
ENDCHAR
STARTCHAR uni1EC8
ENCODING 7880
SWIDTH 500 0
DWIDTH 4 0
BBX 3 6 0 0
BITMAP
C0
40
E0
40
40
E0
ENDCHAR
STARTCHAR uni1EC9
ENCODING 7881
SWIDTH 500 0
DWIDTH 4 0
BBX 3 5 0 0
BITMAP
C0
40
C0
40
E0
ENDCHAR
STARTCHAR uni1ECA
ENCODING 7882
SWIDTH 500 0
DWIDTH 4 0
BBX 3 5 0 0
BITMAP
E0
40
40
E0
40
ENDCHAR
STARTCHAR uni1ECB
ENCODING 7883
SWIDTH 500 0
DWIDTH 4 0
BBX 3 4 0 0
BITMAP
C0
40
E0
40
ENDCHAR
STARTCHAR uni1ECC
ENCODING 7884
SWIDTH 500 0
DWIDTH 4 0
BBX 3 5 0 0
BITMAP
E0
A0
A0
E0
40
ENDCHAR
STARTCHAR uni1ECD
ENCODING 7885
SWIDTH 500 0
DWIDTH 4 0
BBX 3 5 0 0
BITMAP
E0
A0
A0
E0
40
ENDCHAR
STARTCHAR uni1ECE
ENCODING 7886
SWIDTH 500 0
DWIDTH 4 0
BBX 3 6 0 0
BITMAP
C0
40
E0
A0
A0
E0
ENDCHAR
STARTCHAR uni1ECF
ENCODING 7887
SWIDTH 500 0
DWIDTH 4 0
BBX 3 5 0 0
BITMAP
C0
40
E0
A0
E0
ENDCHAR
STARTCHAR uni1ED0
ENCODING 7888
SWIDTH 500 0
DWIDTH 4 0
BBX 3 6 0 0
BITMAP
20
C0
E0
A0
A0
E0
ENDCHAR
STARTCHAR uni1ED1
ENCODING 7889
SWIDTH 500 0
DWIDTH 4 0
BBX 3 5 0 0
BITMAP
20
C0
E0
A0
E0
ENDCHAR
STARTCHAR uni1ED2
ENCODING 7890
SWIDTH 500 0
DWIDTH 4 0
BBX 3 6 0 0
BITMAP
80
60
E0
A0
A0
E0
ENDCHAR
STARTCHAR uni1ED3
ENCODING 7891
SWIDTH 500 0
DWIDTH 4 0
BBX 3 5 0 0
BITMAP
80
60
E0
A0
E0
ENDCHAR
STARTCHAR uni1ED4
ENCODING 7892
SWIDTH 500 0
DWIDTH 4 0
BBX 3 6 0 0
BITMAP
20
E0
E0
A0
A0
E0
ENDCHAR
STARTCHAR uni1ED5
ENCODING 7893
SWIDTH 500 0
DWIDTH 4 0
BBX 3 5 0 0
BITMAP
20
E0
E0
A0
E0
ENDCHAR
STARTCHAR uni1ED6
ENCODING 7894
SWIDTH 500 0
DWIDTH 4 0
BBX 3 6 0 0
BITMAP
E0
A0
E0
A0
A0
E0
ENDCHAR
STARTCHAR uni1ED7
ENCODING 7895
SWIDTH 500 0
DWIDTH 4 0
BBX 3 5 0 0
BITMAP
E0
A0
E0
A0
E0
ENDCHAR
STARTCHAR uni1ED8
ENCODING 7896
SWIDTH 500 0
DWIDTH 4 0
BBX 3 6 0 0
BITMAP
40
E0
A0
A0
E0
40
ENDCHAR
STARTCHAR uni1ED9
ENCODING 7897
SWIDTH 500 0
DWIDTH 4 0
BBX 3 6 0 0
BITMAP
40
00
E0
A0
E0
40
ENDCHAR
STARTCHAR uni1EDA
ENCODING 7898
SWIDTH 500 0
DWIDTH 5 0
BBX 4 6 0 0
BITMAP
20
50
F0
A0
A0
E0
ENDCHAR
STARTCHAR uni1EDB
ENCODING 7899
SWIDTH 500 0
DWIDTH 5 0
BBX 4 6 0 0
BITMAP
20
40
10
F0
A0
E0
ENDCHAR
STARTCHAR uni1EDC
ENCODING 7900
SWIDTH 500 0
DWIDTH 5 0
BBX 4 6 0 0
BITMAP
80
50
F0
A0
A0
E0
ENDCHAR
STARTCHAR uni1EDD
ENCODING 7901
SWIDTH 500 0
DWIDTH 5 0
BBX 4 6 0 0
BITMAP
80
40
10
F0
A0
E0
ENDCHAR
STARTCHAR uni1EDE
ENCODING 7902
SWIDTH 500 0
DWIDTH 5 0
BBX 4 6 0 0
BITMAP
C0
50
F0
A0
A0
E0
ENDCHAR
STARTCHAR uni1EDF
ENCODING 7903
SWIDTH 500 0
DWIDTH 5 0
BBX 4 6 0 0
BITMAP
C0
40
10
F0
A0
E0
ENDCHAR
STARTCHAR uni1EE0
ENCODING 7904
SWIDTH 500 0
DWIDTH 5 0
BBX 4 6 0 0
BITMAP
E0
10
F0
A0
A0
E0
ENDCHAR
STARTCHAR uni1EE1
ENCODING 7905
SWIDTH 500 0
DWIDTH 5 0
BBX 4 5 0 0
BITMAP
E0
10
F0
A0
E0
ENDCHAR
STARTCHAR uni1EE2
ENCODING 7906
SWIDTH 500 0
DWIDTH 5 0
BBX 4 6 0 0
BITMAP
10
F0
A0
A0
E0
40
ENDCHAR
STARTCHAR uni1EE3
ENCODING 7907
SWIDTH 500 0
DWIDTH 5 0
BBX 4 6 0 0
BITMAP
10
F0
A0
A0
E0
40
ENDCHAR
STARTCHAR uni1EE4
ENCODING 7908
SWIDTH 500 0
DWIDTH 4 0
BBX 3 5 0 0
BITMAP
A0
A0
A0
E0
40
ENDCHAR
STARTCHAR uni1EE5
ENCODING 7909
SWIDTH 500 0
DWIDTH 4 0
BBX 3 5 0 0
BITMAP
A0
A0
A0
E0
40
ENDCHAR
STARTCHAR uni1EE6
ENCODING 7910
SWIDTH 500 0
DWIDTH 4 0
BBX 3 6 0 0
BITMAP
C0
40
A0
A0
A0
E0
ENDCHAR
STARTCHAR uni1EE7
ENCODING 7911
SWIDTH 500 0
DWIDTH 4 0
BBX 3 5 0 0
BITMAP
C0
40
A0
A0
E0
ENDCHAR
STARTCHAR uni1EE8
ENCODING 7912
SWIDTH 500 0
DWIDTH 5 0
BBX 4 6 0 0
BITMAP
20
50
B0
A0
A0
E0
ENDCHAR
STARTCHAR uni1EE9
ENCODING 7913
SWIDTH 500 0
DWIDTH 5 0
BBX 4 6 0 0
BITMAP
20
40
10
B0
A0
E0
ENDCHAR
STARTCHAR uni1EEA
ENCODING 7914
SWIDTH 500 0
DWIDTH 5 0
BBX 4 6 0 0
BITMAP
80
50
B0
A0
A0
E0
ENDCHAR
STARTCHAR uni1EEB
ENCODING 7915
SWIDTH 500 0
DWIDTH 5 0
BBX 4 6 0 0
BITMAP
80
40
10
B0
A0
E0
ENDCHAR
STARTCHAR uni1EEC
ENCODING 7916
SWIDTH 500 0
DWIDTH 5 0
BBX 4 6 0 0
BITMAP
C0
50
B0
A0
A0
E0
ENDCHAR
STARTCHAR uni1EED
ENCODING 7917
SWIDTH 500 0
DWIDTH 5 0
BBX 4 6 0 0
BITMAP
C0
40
10
B0
A0
E0
ENDCHAR
STARTCHAR uni1EEE
ENCODING 7918
SWIDTH 500 0
DWIDTH 5 0
BBX 4 6 0 0
BITMAP
E0
10
B0
A0
A0
E0
ENDCHAR
STARTCHAR uni1EEF
ENCODING 7919
SWIDTH 500 0
DWIDTH 5 0
BBX 4 5 0 0
BITMAP
E0
10
B0
A0
E0
ENDCHAR
STARTCHAR uni1EF0
ENCODING 7920
SWIDTH 500 0
DWIDTH 5 0
BBX 4 6 0 0
BITMAP
10
B0
A0
A0
E0
40
ENDCHAR
STARTCHAR uni1EF1
ENCODING 7921
SWIDTH 500 0
DWIDTH 5 0
BBX 4 6 0 0
BITMAP
10
B0
A0
A0
E0
40
ENDCHAR
STARTCHAR uni1EF2
ENCODING 7922
SWIDTH 500 0
DWIDTH 4 0
BBX 3 6 0 0
BITMAP
80
40
A0
E0
40
40
ENDCHAR
STARTCHAR uni1EF3
ENCODING 7923
SWIDTH 500 0
DWIDTH 4 0
BBX 3 6 0 0
BITMAP
80
40
A0
E0
20
60
ENDCHAR
STARTCHAR uni1EF4
ENCODING 7924
SWIDTH 500 0
DWIDTH 4 0
BBX 3 6 0 0
BITMAP
A0
E0
40
40
00
40
ENDCHAR
STARTCHAR uni1EF5
ENCODING 7925
SWIDTH 500 0
DWIDTH 4 0
BBX 3 5 0 0
BITMAP
A0
E0
20
60
80
ENDCHAR
STARTCHAR uni1EF6
ENCODING 7926
SWIDTH 500 0
DWIDTH 4 0
BBX 3 6 0 0
BITMAP
C0
40
A0
E0
40
40
ENDCHAR
STARTCHAR uni1EF7
ENCODING 7927
SWIDTH 500 0
DWIDTH 4 0
BBX 3 6 0 0
BITMAP
C0
40
A0
E0
20
60
ENDCHAR
STARTCHAR uni1EF8
ENCODING 7928
SWIDTH 500 0
DWIDTH 4 0
BBX 3 5 0 0
BITMAP
E0
A0
E0
40
40
ENDCHAR
STARTCHAR uni1EF9
ENCODING 7929
SWIDTH 500 0
DWIDTH 4 0
BBX 3 5 0 0
BITMAP
E0
A0
E0
20
60
ENDCHAR
STARTCHAR uni3007
ENCODING 12295
SWIDTH 500 0
DWIDTH 8 0
BBX 7 6 0 0
BITMAP
38
44
82
82
44
38
ENDCHAR
STARTCHAR uni4E00
ENCODING 19968
SWIDTH 500 0
DWIDTH 8 0
BBX 7 1 0 3
BITMAP
FE
ENDCHAR
STARTCHAR uni4E03
ENCODING 19971
SWIDTH 500 0
DWIDTH 8 0
BBX 7 6 0 0
BITMAP
20
2C
F0
20
22
1C
ENDCHAR
STARTCHAR uni4E09
ENCODING 19977
SWIDTH 500 0
DWIDTH 8 0
BBX 7 5 0 1
BITMAP
7C
00
38
00
FE
ENDCHAR
STARTCHAR uni4E0A
ENCODING 19978
SWIDTH 500 0
DWIDTH 6 0
BBX 5 6 0 0
BITMAP
40
70
40
40
40
F8
ENDCHAR
STARTCHAR uni4E0B
ENCODING 19979
SWIDTH 500 0
DWIDTH 6 0
BBX 5 6 0 0
BITMAP
F8
40
60
50
40
40
ENDCHAR
STARTCHAR uni4E5D
ENCODING 20061
SWIDTH 500 0
DWIDTH 8 0
BBX 7 6 0 0
BITMAP
20
F8
28
48
4A
8E
ENDCHAR
STARTCHAR uni4E8C
ENCODING 20108
SWIDTH 500 0
DWIDTH 8 0
BBX 7 4 0 1
BITMAP
7C
00
00
FE
ENDCHAR
STARTCHAR uni4E94
ENCODING 20116
SWIDTH 500 0
DWIDTH 8 0
BBX 7 6 0 0
BITMAP
7C
10
7C
24
24
FE
ENDCHAR
STARTCHAR uni516B
ENCODING 20843
SWIDTH 500 0
DWIDTH 8 0
BBX 7 6 0 0
BITMAP
28
28
28
44
44
82
ENDCHAR
STARTCHAR uni516D
ENCODING 20845
SWIDTH 500 0
DWIDTH 8 0
BBX 7 6 0 0
BITMAP
10
FE
00
28
44
82
ENDCHAR
STARTCHAR uni5341
ENCODING 21313
SWIDTH 500 0
DWIDTH 8 0
BBX 7 6 0 0
BITMAP
10
10
FE
10
10
10
ENDCHAR
STARTCHAR uni5348
ENCODING 21320
SWIDTH 500 0
DWIDTH 6 0
BBX 5 6 0 0
BITMAP
40
78
A0
20
F8
20
ENDCHAR
STARTCHAR uni56DB
ENCODING 22235
SWIDTH 500 0
DWIDTH 8 0
BBX 7 6 0 0
BITMAP
FE
AA
AE
C2
82
FE
ENDCHAR
STARTCHAR uni5929
ENCODING 22825
SWIDTH 500 0
DWIDTH 8 0
BBX 7 6 0 0
BITMAP
7C
10
FE
10
28
C6
ENDCHAR
STARTCHAR uni5E74
ENCODING 24180
SWIDTH 500 0
DWIDTH 8 0
BBX 7 6 0 0
BITMAP
7C
90
7C
50
FE
10
ENDCHAR
STARTCHAR uni65E5
ENCODING 26085
SWIDTH 500 0
DWIDTH 6 0
BBX 5 6 0 0
BITMAP
F8
88
F8
88
88
F8
ENDCHAR
STARTCHAR uni661F
ENCODING 26143
SWIDTH 500 0
DWIDTH 8 0
BBX 7 6 0 0
BITMAP
FC
84
FC
5E
90
FE
ENDCHAR
STARTCHAR uni6708
ENCODING 26376
SWIDTH 500 0
DWIDTH 8 0
BBX 6 6 1 0
BITMAP
7C
44
7C
44
7C
8C
ENDCHAR
STARTCHAR uni671F
ENCODING 26399
SWIDTH 500 0
DWIDTH 8 0
BBX 7 6 0 0
BITMAP
5E
FA
7A
5E
EA
A6
ENDCHAR
STARTCHAR uni96F6
ENCODING 38646
SWIDTH 500 0
DWIDTH 8 0
BBX 7 6 0 0
BITMAP
38
FE
92
28
BA
08
ENDCHAR
STARTCHAR uniAE08
ENCODING 44552
SWIDTH 500 0
DWIDTH 6 0
BBX 5 6 0 0
BITMAP
F8
08
F8
70
50
70
ENDCHAR
STARTCHAR uniB144
ENCODING 45380
SWIDTH 500 0
DWIDTH 6 0
BBX 5 6 0 0
BITMAP
88
B8
E8
38
80
F8
ENDCHAR
STARTCHAR uniBAA9
ENCODING 47785
SWIDTH 500 0
DWIDTH 6 0
BBX 5 6 0 0
BITMAP
F8
88
F8
20
F8
08
ENDCHAR
STARTCHAR uniC218
ENCODING 49688
SWIDTH 500 0
DWIDTH 6 0
BBX 5 6 0 0
BITMAP
20
50
88
F8
20
20
ENDCHAR
STARTCHAR uniC624
ENCODING 50724
SWIDTH 500 0
DWIDTH 6 0
BBX 5 5 0 1
BITMAP
70
88
70
20
F8
ENDCHAR
STARTCHAR uniC694
ENCODING 50836
SWIDTH 500 0
DWIDTH 6 0
BBX 5 5 0 1
BITMAP
70
88
70
50
F8
ENDCHAR
STARTCHAR uniC6D4
ENCODING 50900
SWIDTH 500 0
DWIDTH 6 0
BBX 5 6 0 0
BITMAP
48
A8
48
E8
C0
F8
ENDCHAR
STARTCHAR uniC77C
ENCODING 51068
SWIDTH 500 0
DWIDTH 6 0
BBX 5 6 0 0
BITMAP
48
A8
48
F0
20
78
ENDCHAR
STARTCHAR uniC804
ENCODING 51204
SWIDTH 500 0
DWIDTH 7 0
BBX 6 6 0 0
BITMAP
F4
24
5C
A4
80
FC
ENDCHAR
STARTCHAR uniD1A0
ENCODING 53664
SWIDTH 500 0
DWIDTH 6 0
BBX 5 6 0 0
BITMAP
F8
80
F0
F8
20
F8
ENDCHAR
STARTCHAR uniD654
ENCODING 54868
SWIDTH 500 0
DWIDTH 7 0
BBX 6 6 0 0
BITMAP
24
FC
54
5C
24
F8
ENDCHAR
STARTCHAR uniD6C4
ENCODING 54980
SWIDTH 500 0
DWIDTH 6 0
BBX 5 6 0 0
BITMAP
20
F8
50
20
F8
20
ENDCHAR
ENDFONT
